<?xml version="1.0" encoding="UTF-8" standalone="no"?>
<svg
   xmlns:dc="http://purl.org/dc/elements/1.1/"
   xmlns:cc="http://creativecommons.org/ns#"
   xmlns:rdf="http://www.w3.org/1999/02/22-rdf-syntax-ns#"
   xmlns:svg="http://www.w3.org/2000/svg"
   xmlns="http://www.w3.org/2000/svg"
   xmlns:sodipodi="http://sodipodi.sourceforge.net/DTD/sodipodi-0.dtd"
   xmlns:inkscape="http://www.inkscape.org/namespaces/inkscape"
   version="1.0"
   width="1024mm"
   height="640mm"
   viewBox="0 0 1024 640"
   id="svg4627"
   sodipodi:docname="addons.svg"
   inkscape:version="0.92.5 (2060ec1f9f, 2020-04-08)"
   inkscape:export-filename="/media/other/dev/web/LoveTolerance/assets/cards/features/addons.png"
   inkscape:export-xdpi="25.4"
   inkscape:export-ydpi="25.4">
  <metadata
     id="metadata4633">
    <rdf:RDF>
      <cc:Work
         rdf:about="">
        <dc:format>image/svg+xml</dc:format>
        <dc:type
           rdf:resource="http://purl.org/dc/dcmitype/StillImage" />
        <dc:title />
      </cc:Work>
    </rdf:RDF>
  </metadata>
  <defs
     id="defs4631" />
  <sodipodi:namedview
     pagecolor="#ffffff"
     bordercolor="#666666"
     borderopacity="1"
     objecttolerance="10"
     gridtolerance="10"
     guidetolerance="10"
     inkscape:pageopacity="0"
     inkscape:pageshadow="2"
     inkscape:window-width="1302"
     inkscape:window-height="704"
     id="namedview4629"
     showgrid="false"
     inkscape:document-units="mm"
     inkscape:snap-grids="true"
     inkscape:zoom="0.18138428"
     inkscape:cx="1749.1064"
     inkscape:cy="1328.9364"
     inkscape:window-x="1280"
     inkscape:window-y="283"
     inkscape:window-maximized="1"
     inkscape:current-layer="svg4627" />
  <path
     id="path4625"
     style="fill:none;stroke:#c0c0c0;stroke-width:3;stroke-linejoin:miter;stroke-miterlimit:4;stroke-dasharray:none;stroke-opacity:1;stroke-linecap:butt"
     d="m 0,256 c 25.6,0 64,-14.4 49.6,14.4 -14.4,28.8 43.2,28.8 28.8,0 C 64,241.6 102.4,256 128,256 m 768,0 c 25.6,0 64,-14.4 49.6,14.4 -14.4,28.8 43.2,28.8 28.8,0 C 960,241.6 998.4,256 1024,256 M 0,384 c 25.6,0 64,14.4 49.6,-14.4 -14.4,-28.8 43.2,-28.8 28.8,0 -14.4,28.8 24,14.4 49.6,14.4 m 768,0 c 25.6,0 64,14.4 49.6,-14.4 -14.4,-28.8 43.2,-28.8 28.8,0 -14.4,28.8 24,14.4 49.6,14.4 M 256,0 c 0,25.6 14.4,64 -14.4,49.6 -28.8,-14.4 -28.8,43.2 0,28.8 28.8,-14.4 14.4,24 14.4,49.6 m 0,384 c 0,25.6 -14.4,64 14.4,49.6 28.8,-14.4 28.8,43.2 0,28.8 C 241.6,576 256,614.4 256,640 M 384,0 c 0,25.6 14.4,64 -14.4,49.6 -28.8,-14.4 -28.8,43.2 0,28.8 28.8,-14.4 14.4,24 14.4,49.6 m 0,384 c 0,25.6 14.4,64 -14.4,49.6 -28.8,-14.4 -28.8,43.2 0,28.8 28.8,-14.4 14.4,24 14.4,49.6 M 512,0 c 0,25.6 -14.4,64 14.4,49.6 28.8,-14.4 28.8,43.2 0,28.8 C 497.6,64 512,102.4 512,128 m 0,384 c 0,25.6 14.4,64 -14.4,49.6 -28.8,-14.4 -28.8,43.2 0,28.8 28.8,-14.4 14.4,24 14.4,49.6 M 640,0 c 0,25.6 -14.4,64 14.4,49.6 28.8,-14.4 28.8,43.2 0,28.8 C 625.6,64 640,102.4 640,128 m 0,384 c 0,25.6 -14.4,64 14.4,49.6 28.8,-14.4 28.8,43.2 0,28.8 C 625.6,576 640,614.4 640,640 M 768,0 c 0,25.6 14.4,64 -14.4,49.6 -28.8,-14.4 -28.8,43.2 0,28.8 28.8,-14.4 14.4,24 14.4,49.6 m 0,384 c 0,25.6 -14.4,64 14.4,49.6 28.8,-14.4 28.8,43.2 0,28.8 C 753.6,576 768,614.4 768,640 M 0,128 c 25.6,0 64,14.4 49.6,-14.4 -14.4,-28.8 43.2,-28.8 28.8,0 -14.4,28.8 24,14.4 49.6,14.4 25.6,0 64,-14.4 49.6,14.4 -14.4,28.8 43.2,28.8 28.8,0 -14.4,-28.8 24,-14.4 49.6,-14.4 25.6,0 64,-14.4 49.6,14.4 -14.4,28.8 43.2,28.8 28.8,0 -14.4,-28.8 24,-14.4 49.6,-14.4 25.6,0 64,14.4 49.6,-14.4 -14.4,-28.8 43.2,-28.8 28.8,0 -14.4,28.8 24,14.4 49.6,14.4 25.6,0 64,14.4 49.6,-14.4 -14.4,-28.8 43.2,-28.8 28.8,0 -14.4,28.8 24,14.4 49.6,14.4 25.6,0 64,14.4 49.6,-14.4 -14.4,-28.8 43.2,-28.8 28.8,0 -14.4,28.8 24,14.4 49.6,14.4 25.6,0 64,-14.4 49.6,14.4 -14.4,28.8 43.2,28.8 28.8,0 -14.4,-28.8 24,-14.4 49.6,-14.4 25.6,0 64,14.4 49.6,-14.4 -14.4,-28.8 43.2,-28.8 28.8,0 -14.4,28.8 24,14.4 49.6,14.4 M 0,512 c 25.6,0 64,14.4 49.6,-14.4 -14.4,-28.8 43.2,-28.8 28.8,0 -14.4,28.8 24,14.4 49.6,14.4 25.6,0 64,-14.4 49.6,14.4 -14.4,28.8 43.2,28.8 28.8,0 -14.4,-28.8 24,-14.4 49.6,-14.4 25.6,0 64,14.4 49.6,-14.4 -14.4,-28.8 43.2,-28.8 28.8,0 -14.4,28.8 24,14.4 49.6,14.4 25.6,0 64,-14.4 49.6,14.4 -14.4,28.8 43.2,28.8 28.8,0 -14.4,-28.8 24,-14.4 49.6,-14.4 25.6,0 64,14.4 49.6,-14.4 -14.4,-28.8 43.2,-28.8 28.8,0 -14.4,28.8 24,14.4 49.6,14.4 25.6,0 64,-14.4 49.6,14.4 -14.4,28.8 43.2,28.8 28.8,0 -14.4,-28.8 24,-14.4 49.6,-14.4 25.6,0 64,14.4 49.6,-14.4 -14.4,-28.8 43.2,-28.8 28.8,0 -14.4,28.8 24,14.4 49.6,14.4 25.6,0 64,14.4 49.6,-14.4 -14.4,-28.8 43.2,-28.8 28.8,0 -14.4,28.8 24,14.4 49.6,14.4 M 128,0 c 0,25.6 14.4,64 -14.4,49.6 -28.8,-14.4 -28.8,43.2 0,28.8 28.8,-14.4 14.4,24 14.4,49.6 0,25.6 14.4,64 -14.4,49.6 -28.8,-14.4 -28.8,43.2 0,28.8 28.8,-14.4 14.4,24 14.4,49.6 0,25.6 14.4,64 -14.4,49.6 -28.8,-14.4 -28.8,43.2 0,28.8 28.8,-14.4 14.4,24 14.4,49.6 m 0,0 c 0,25.6 14.4,64 -14.4,49.6 -28.8,-14.4 -28.8,43.2 0,28.8 28.8,-14.4 14.4,24 14.4,49.6 0,25.6 -14.4,64 14.4,49.6 28.8,-14.4 28.8,43.2 0,28.8 C 113.6,576 128,614.4 128,640 M 896,0 c 0,25.6 -14.4,64 14.4,49.6 28.8,-14.4 28.8,43.2 0,28.8 C 881.6,64 896,102.4 896,128 c 0,25.6 -14.4,64 14.4,49.6 28.8,-14.4 28.8,43.2 0,28.8 -28.8,-14.4 -14.4,24 -14.4,49.6 0,25.6 14.4,64 -14.4,49.6 -28.8,-14.4 -28.8,43.2 0,28.8 28.8,-14.4 14.4,24 14.4,49.6 0,25.6 -14.4,64 14.4,49.6 28.8,-14.4 28.8,43.2 0,28.8 -28.8,-14.4 -14.4,24 -14.4,49.6 0,25.6 -14.4,64 14.4,49.6 28.8,-14.4 28.8,43.2 0,28.8 C 881.6,576 896,614.4 896,640"
     inkscape:export-xdpi="25.4"
     inkscape:export-ydpi="25.4" />
</svg>
