<svg xmlns="http://www.w3.org/2000/svg" width="638.701" height="265.869" viewBox="0 0 168.99 70.344"><g fill="none"><path d="M44.116 49.197c3.382-9.522 11.161-27.394 28.333-27.027 5.384.116 14.23 2.722 21.702 18.421" stroke="#fff" stroke-width="3.175"/><path d="M37.978 53.727C43.3 36.27 52.995 18.567 72 18.342c15.33-.18 24.428 17.14 29.042 26.913" stroke="#7118cd" stroke-width="5.821"/><path d="M33.935 49.374C39.258 31.918 52.693 15.293 71.7 15.262c19.07-.032 26.709 16.059 31.322 25.83" stroke="#2983f2" stroke-width="5.821"/><path d="M27.426 54.19c7.969-27.51 23.833-42.468 44.115-42.58 21.5-.118 32.001 16.8 39.472 32.5" stroke="#5ef030" stroke-width="5.821"/><path d="M24.151 50.833c7.97-27.51 27.009-42.785 47.29-42.897 21.501-.119 35.494 15.106 42.966 30.806" stroke="#ff0" stroke-width="5.821"/><path d="M21.583 48.539C29.553 21.028 48.71 5.274 68.982 4.67c20.888-.623 38.313 10.436 45.784 26.136" stroke="#ff1f1f" stroke-width="5.821"/><path d="M19.972 45.45C27.942 17.94 47.03 3.221 67.074 1.755c21.173-1.548 40.404 7.751 47.875 23.45" stroke="#fff" stroke-width="3.175"/></g><path d="M45.346 38.752l29.488-3.742 26.943-4.79 16.914 14.67 25.536 3.817 1.78 6.3-30.16 2.605-72.597 3.144z" fill="#fff" fill-rule="evenodd"/><g fill-rule="evenodd" stroke="#fff"><path d="M109.62 41.798c14.854-16.14 1.094-24.879-5.768-16.035-13.648-2.858-14.44 13.24 5.769 16.035z" fill="#fe2323" stroke-width="6.403"/><path d="M59.38 28.73c-1.65-.029-3.907 2.114-4.11 5.164l-.306 4.6c-.081 1.226 1.153 3.529 2.382 3.546l8.004.11c.975.014 1.62-.997 1.667-2.037l.299-6.651c.022-.491-.77-4.601-4.254-4.664zm5.152 6.824c1.057.06 1.982 1.43.774 4.226-4.444.895-5.458-2.539-2.386-2.94.297-.884.978-1.321 1.612-1.286zM43.4 29.341l-.063 10.102c-.008 1.229 1.285 2.673 2.513 2.673h6.721c.604 0 1.322-.864 1.35-1.905.023-.884-.334-2.311-1.217-2.329l-3.47-.069c-.888-.018-.823-.696-.817-1.148l.108-7.62c.013-.945-.554-1.86-3.211-1.73-1.65.08-1.909 1.308-1.913 2.026zm35.918.402l-3.166 10.714c-.61 2.067-3.409 1.673-3.947.179L68.26 29.688c-.38-1.057 2.968-1.366 3.58-.141l2.283 4.565 1.852-4.706c.461-1.17 3.619-.596 3.343.337zm9.491 11.873l-7.09-.057c-.557-.005-1.036-.837-.935-1.385.579-3.141.971-5.734.742-9.874-.042-.743.507-1.508 1.595-1.51l6.018-.014c1.461-.003 1.433 3.493.223 3.51-1.126.017-2.74-.114-3.527.123-.372.112-.502 1.187-.074 1.422.616.34 1.985.016 3.349.075.825.036 1.07 2.304.281 2.55-.524.164-3.275-.117-3.63.232-.268.263-.62 1.485-.188 2.064.291.389 1.805-.082 3.47.005.965.05.731 2.867-.234 2.86z" stroke-width="4.81" fill="#b64397"/><path d="M40.618 48.266l.553 13.973c.067 1.7 1.859 3.61 3.474 3.529l8.836-.446c.793-.04 1.683-1.283 1.654-2.724-.025-1.223-.585-3.173-1.747-3.14l-4.565.136c-1.17.034-1.128-.908-1.148-1.534l-.339-10.543c-.042-1.308-.846-2.535-4.33-2.18-2.164.221-2.428 1.936-2.388 2.929zm18.26 16.164c-.85.022-1.5-1.647-1.504-2.48l-.062-14.392c-.004-1.112.776-2.254 2.439-2.258l8.486-.02c2.234-.006 2.339 4.437.49 4.499l-4.341.145c-.592.02-.931 3.079-.19 3.098l4.259.112c1.26.033 1.609 3.673.35 3.689l-4.131.05c-.568.007-1.045 2.935.045 2.916l4.017-.069c1.475-.025 1.01 4.447.273 4.465zm94.224-1.65c-.85.043-1.537-1.87-1.559-2.83l-.378-16.581c-.03-1.281.726-2.611 2.388-2.648l8.379-.186c2.233-.05 2.568 4.809.721 4.91l-4.936.269c-.592.032-.89 3.833-.148 3.838l4.62.029c1.896.011 2.105 3.817.511 3.873l-4.49.155c-.567.02-1.058 3.779.03 3.73l5.09-.228c2.55-.114 2.734 5.021.372 5.14zM26.792 44.935c-2.34.155-5.312 3.432-5.233 7.772l.14 7.709c.032 1.744 2.027 4.764 3.771 4.749l9.621-.087c1.384-.013 2.436-2.018 2.42-3.496l-.118-10.796c-.008-.697-1.61-6.447-6.548-6.12zm6.078 10.556c1.502-.036 2.966 1.8 1.573 5.894-6.188 1.768-8.012-2.977-3.71-3.892.32-1.285 1.236-1.98 2.137-2.002zm45.829-11.522c-1.651.01-4.527-.106-4.269 2.94l1.32 15.577c.161 1.914.396 3.133 2.343 3.153l3.02.03c.825.009 1.307-.73 1.142-1.734l-.662-4.02c-.076-.458 1.077-.195 1.353.18l3.233 4.386c.405.55 1.4.907 2.059.888 2.544-.072 3.384-.9 3.09-1.44l-2.531-4.662c-.142-.262-.11-.764.193-.814.925-.152 1.673-.798 1.738-2.256l.299-6.65c.122-2.735-2.73-5.64-6.212-5.617zm7.269 8.199c1.056.059 1.981 1.43.773 4.226-4.443.895-5.458-2.54-2.386-2.94.297-.885.979-1.321 1.613-1.286zM10.093 64.869l-1.15-10.744c-.021-.192-.5-.838-.78-.82-1.1.074-1.812.232-2.542.612-1.508.785-2.826-5.361-1.787-6.6.985-1.176 7.693-1.918 12.223-1.77 1.655.055 3.106 1.588 3.37 3.005.224 1.203.089 3.393-1.073 3.429l-2.72.084c-1.17.036-.939 1.005-.831 1.622l1.809 10.392c.224 1.29-.447 2.434-3.93 2.802-2.218.234-2.504-1.217-2.59-2.012zm83.45-3.642c-.609 1.923.146 2.605 1.043 2.748 1.332.213 3.822.385 4.198-.914l.77-2.653c.385-1.33 4.656-1.877 5.293-.53l1.507 3.184c.531 1.122 3.724 1.348 4.915.61.994-.617.07-2.105-.044-2.411l-6.384-17.066c-.498-1.333-5.395-1.635-6.016.328zm9.61-9.418c1.057.059 1.982 1.43.774 4.226-4.443.895-5.458-2.54-2.386-2.94.297-.885.979-1.322 1.613-1.286zm10.142-7.171c-.025-1.587.796-1.824 1.347-1.948 1.06-.24 2.88-.355 3.52.388l6.626 7.69c.17.197.69.507.675-.143l-.158-6.872c-.016-.686-.003-1.712 1-1.712l3.232-.003c.71 0 1.24 1.177 1.27 1.887l.798 18.13c.047 1.071-2.556.858-3.298.083l-8.278-8.636c-.147-.154-.525-.098-.504.396l.35 8.046c.043.998-.746 1.415-1.218 1.412l-3.331-.027c-1.159-.01-1.767-1.885-1.779-2.623zm21.03 13.507c1.179 2.514 3.435 3.532 6.964 3.597 8.001.148 9.046-8.452 5.76-8.873-2.92-.375-2.007 4.423-7.036 3.817-3.012-.364-3.068-9.356.824-9.543 4.206-.202 4.378 4.304 6.735 2.021 2.358-2.283-2.09-7.656-7.184-7.41-4.453.216-6.152 3.909-6.67 5.325-.515 1.411-1.06 7.508.607 11.066z" stroke-width="6.9" fill="#fe1bab"/></g><path d="M41.27 48.78l.553 13.973c.067 1.7 1.858 3.61 3.473 3.53l8.837-.447c.793-.04 1.683-1.283 1.654-2.724-.025-1.223-.585-3.173-1.748-3.139l-4.565.135c-1.17.034-1.127-.907-1.147-1.533l-.34-10.543c-.041-1.308-.845-2.536-4.33-2.18-2.163.22-2.427 1.936-2.388 2.928zm18.26 16.165c-.85.02-1.5-1.648-1.504-2.48l-.062-14.393c-.004-1.112.776-2.254 2.439-2.258l8.486-.02c2.234-.005 2.338 4.437.49 4.499l-4.341.145c-.593.02-.931 3.079-.19 3.099l4.258.111c1.262.033 1.61 3.674.35 3.69l-4.13.05c-.568.006-1.045 2.934.045 2.915l4.017-.068c1.475-.026 1.01 4.447.273 4.464zm94.224-1.65c-.85.042-1.537-1.87-1.559-2.83l-.378-16.582c-.03-1.281.726-2.61 2.388-2.648l8.378-.185c2.233-.05 2.569 4.808.722 4.91l-4.936.268c-.592.033-.89 3.834-.148 3.838l4.62.03c1.896.01 2.104 3.817.511 3.872l-4.49.156c-.567.02-1.058 3.778.03 3.73l5.09-.229c2.55-.114 2.734 5.022.372 5.14zM27.444 45.45c-2.34.155-5.312 3.432-5.233 7.772l.14 7.708c.032 1.744 2.027 4.765 3.77 4.749l9.622-.087c1.384-.013 2.435-2.017 2.42-3.496l-.118-10.795c-.008-.698-1.61-6.448-6.548-6.12zm6.078 10.556c1.502-.036 2.966 1.799 1.573 5.893-6.188 1.769-8.012-2.977-3.71-3.892.32-1.285 1.236-1.98 2.137-2.001zM79.35 44.483c-1.65.01-4.526-.105-4.268 2.94l1.32 15.578c.161 1.914.396 3.133 2.343 3.152l3.02.03c.825.01 1.307-.73 1.141-1.733l-.661-4.02c-.076-.46 1.076-.196 1.353.18l3.233 4.385c.405.55 1.4.907 2.059.888 2.544-.071 3.384-.899 3.09-1.44l-2.531-4.662c-.142-.262-.11-.764.193-.813.925-.153 1.672-.799 1.738-2.256l.298-6.651c.123-2.735-2.728-5.64-6.212-5.617zm7.27 8.2c1.056.058 1.98 1.429.773 4.225-4.444.895-5.458-2.539-2.386-2.94.297-.884.979-1.321 1.613-1.286zm-75.875 12.7L9.594 54.64c-.02-.193-.499-.839-.778-.82-1.102.073-1.813.231-2.543.611-1.508.786-2.826-5.36-1.787-6.6.985-1.175 7.693-1.918 12.223-1.77 1.654.055 3.106 1.588 3.37 3.006.224 1.202.089 3.392-1.074 3.428l-2.72.084c-1.17.036-.938 1.005-.83 1.622l1.808 10.392c.225 1.29-.446 2.435-3.93 2.802-2.217.234-2.503-1.217-2.588-2.012zm83.449-3.642c-.608 1.923.147 2.605 1.043 2.749 1.333.212 3.823.384 4.199-.914l.77-2.654c.385-1.33 4.655-1.877 5.293-.53l1.507 3.184c.53 1.122 3.724 1.348 4.914.61.995-.616.072-2.105-.043-2.41l-6.384-17.067c-.498-1.332-5.395-1.634-6.016.328zm9.612-9.418c1.056.06 1.98 1.43.773 4.226-4.444.895-5.458-2.539-2.386-2.94.297-.884.979-1.321 1.613-1.286zm10.141-7.171c-.025-1.587.796-1.823 1.347-1.947 1.06-.24 2.88-.355 3.52.387l6.626 7.69c.17.197.69.507.675-.143l-.159-6.871c-.015-.686-.003-1.712 1-1.713l3.233-.002c.71 0 1.24 1.177 1.27 1.886l.797 18.13c.047 1.072-2.555.858-3.297.083l-8.278-8.635c-.148-.154-.525-.099-.504.395l.35 8.046c.043.998-.746 1.416-1.218 1.412l-3.331-.026c-1.16-.01-1.767-1.885-1.779-2.624zm21.03 13.508c1.178 2.513 3.435 3.531 6.964 3.596 8 .148 9.046-8.452 5.76-8.873-2.92-.374-2.008 4.424-7.036 3.817-3.012-.363-3.068-9.355.823-9.542 4.207-.203 4.379 4.303 6.736 2.02 2.358-2.282-2.09-7.656-7.185-7.409-4.452.216-6.152 3.908-6.669 5.325-.515 1.41-1.06 7.507.607 11.065z" fill="#b62f8f" fill-rule="evenodd"/><path d="M60.053 29.148c-1.651-.03-3.907 2.113-4.11 5.163l-.306 4.6c-.082 1.226 1.153 3.529 2.381 3.546l8.005.11c.974.014 1.62-.997 1.666-2.037l.299-6.651c.022-.491-.77-4.601-4.254-4.664zm5.152 6.823c1.056.06 1.981 1.43.773 4.226-4.444.895-5.458-2.539-2.386-2.94.297-.884.979-1.321 1.613-1.286zm-21.132-6.213l-.064 10.102c-.008 1.229 1.285 2.673 2.514 2.673h6.72c.604 0 1.323-.864 1.35-1.905.024-.883-.333-2.311-1.217-2.329l-3.469-.069c-.889-.017-.824-.695-.818-1.148l.108-7.62c.014-.945-.554-1.86-3.21-1.73-1.65.08-1.91 1.309-1.914 2.026zm35.917.402l-3.165 10.714c-.61 2.067-3.41 1.673-3.948.18l-3.944-10.949c-.381-1.057 2.967-1.365 3.58-.141l2.282 4.565 1.853-4.706c.46-1.17 3.618-.596 3.342.338zm9.491 11.873l-7.09-.057c-.557-.005-1.036-.837-.935-1.385.58-3.14.971-5.734.742-9.874-.041-.742.507-1.508 1.595-1.51l6.018-.014c1.462-.003 1.433 3.493.223 3.511-1.125.016-2.74-.115-3.526.122-.372.112-.502 1.187-.075 1.422.616.34 1.985.016 3.35.075.824.036 1.069 2.304.28 2.55-.523.165-3.275-.117-3.63.232-.268.263-.62 1.485-.187 2.064.29.389 1.805-.082 3.47.005.964.05.73 2.867-.235 2.86z" fill="#6d055e" fill-rule="evenodd"/><path d="M110.027 42.552c14.853-16.14 1.093-24.879-5.769-16.035-13.648-2.858-14.44 13.24 5.769 16.035z" fill="#c30101" fill-rule="evenodd"/><path d="M109.62 41.798c14.854-16.14 1.094-24.879-5.768-16.035-13.648-2.858-14.44 13.24 5.769 16.035z" fill="#fe2323" fill-rule="evenodd"/><path d="M110.034 29.606s-.466 1.39-2.034 3.219c-4.16 4.849-4.56 3.24-4.495 2.407.094-1.21.861-2.214 2.505-3.79.876-.84 3.723-3.285 3.537-4.999-.313-2.902-4.98-1.037-5.27 3.01-.206 2.861 4.152 7.05 5.913 7.02.696-.74 1.027-1.804.812-2.735-1.264 1.363-3.956-2.176-4.616-3.46-.767-1.49-.108-4.152 1.392-4.437 1.046-.2-.192 2.1-1.068 2.94-1.644 1.576-4.831 4.032-4.863 6.896-.015 1.358 2.141 5.115 6.666-.236 1.047-1.24 2.217-3.091 2.333-3.762.14-.807-.353-1.588-.812-2.073z" fill="#fff"/><path d="M59.38 28.73c-1.65-.029-3.907 2.114-4.11 5.164l-.306 4.6c-.081 1.226 1.153 3.529 2.382 3.546l8.004.11c.975.014 1.62-.997 1.667-2.037l.299-6.651c.022-.491-.77-4.601-4.254-4.664zm5.152 6.824c1.057.06 1.982 1.43.774 4.226-4.444.895-5.458-2.539-2.386-2.94.297-.884.978-1.321 1.612-1.286zM43.4 29.341l-.063 10.102c-.008 1.229 1.285 2.673 2.513 2.673h6.721c.604 0 1.322-.864 1.35-1.905.023-.884-.334-2.311-1.217-2.329l-3.47-.069c-.888-.018-.823-.696-.817-1.148l.108-7.62c.013-.945-.554-1.86-3.211-1.73-1.65.08-1.909 1.308-1.913 2.026zm35.918.402l-3.166 10.714c-.61 2.067-3.409 1.673-3.947.179L68.26 29.688c-.38-1.057 2.968-1.366 3.58-.141l2.283 4.565 1.852-4.706c.461-1.17 3.619-.596 3.343.337zm9.491 11.873l-7.09-.057c-.557-.005-1.036-.837-.935-1.385.579-3.141.971-5.734.742-9.874-.042-.743.507-1.508 1.595-1.51l6.018-.014c1.461-.003 1.433 3.493.223 3.51-1.126.017-2.74-.114-3.527.123-.372.112-.502 1.187-.074 1.422.616.34 1.985.016 3.349.075.825.036 1.07 2.304.281 2.55-.524.164-3.275-.117-3.63.232-.268.263-.62 1.485-.188 2.064.291.389 1.805-.082 3.47.005.965.05.731 2.867-.234 2.86z" fill="#b64397" fill-rule="evenodd"/><path d="M40.288 47.845l.554 13.974c.067 1.699 1.858 3.61 3.473 3.528l8.837-.446c.793-.04 1.683-1.282 1.654-2.724-.025-1.223-.585-3.173-1.748-3.139l-4.565.135c-1.17.035-1.127-.907-1.147-1.533l-.34-10.543c-.041-1.308-.845-2.535-4.33-2.18-2.163.22-2.427 1.936-2.388 2.928zM58.55 64.01c-.852.021-1.502-1.647-1.505-2.48l-.062-14.393c-.004-1.112.776-2.253 2.439-2.257l8.486-.02c2.234-.006 2.338 4.436.49 4.498l-4.341.145c-.593.02-.931 3.08-.19 3.099l4.258.111c1.262.034 1.61 3.674.35 3.69l-4.13.05c-.568.006-1.045 2.934.045 2.916l4.017-.07c1.475-.025 1.01 4.448.273 4.466zm94.223-1.65c-.85.042-1.537-1.87-1.559-2.83l-.378-16.582c-.03-1.28.726-2.61 2.388-2.648l8.379-.185c2.232-.05 2.568 4.809.72 4.91l-4.935.268c-.592.033-.89 3.834-.148 3.838l4.62.03c1.896.011 2.104 3.817.511 3.872l-4.49.156c-.567.02-1.058 3.778.03 3.73l5.09-.228c2.55-.114 2.734 5.02.372 5.139zM26.463 44.515c-2.34.155-5.312 3.432-5.233 7.772l.14 7.708c.032 1.744 2.027 4.765 3.77 4.749l9.622-.087c1.384-.012 2.435-2.017 2.42-3.495l-.118-10.796c-.008-.698-1.61-6.448-6.548-6.12zM32.54 55.07c1.502-.036 2.966 1.799 1.573 5.893-6.188 1.769-8.012-2.977-3.71-3.891.32-1.285 1.236-1.98 2.137-2.002zm45.83-11.522c-1.652.01-4.527-.105-4.269 2.941l1.32 15.577c.161 1.914.396 3.133 2.343 3.153l3.02.03c.825.008 1.307-.731 1.142-1.734l-.662-4.02c-.076-.459 1.076-.196 1.353.18l3.233 4.385c.405.55 1.4.907 2.059.889 2.544-.072 3.384-.9 3.09-1.44l-2.531-4.663c-.142-.261-.11-.763.193-.813.925-.153 1.672-.798 1.738-2.256l.299-6.651c.122-2.734-2.73-5.64-6.213-5.617zm7.269 8.2c1.056.059 1.98 1.43.773 4.226-4.444.894-5.458-2.54-2.386-2.94.297-.885.979-1.322 1.613-1.286zm-75.875 12.7L8.613 53.705c-.02-.192-.498-.838-.778-.82-1.102.073-1.813.231-2.543.611-1.508.786-2.826-5.36-1.787-6.6.985-1.175 7.693-1.918 12.223-1.77 1.654.055 3.106 1.589 3.37 3.006.224 1.202.089 3.392-1.074 3.428l-2.72.084c-1.17.036-.938 1.005-.83 1.622l1.808 10.393c.225 1.289-.446 2.434-3.93 2.801-2.217.235-2.503-1.217-2.588-2.012zm83.449-3.641c-.608 1.923.147 2.605 1.044 2.748 1.332.212 3.822.384 4.198-.914l.77-2.654c.385-1.33 4.655-1.877 5.293-.53l1.507 3.185c.53 1.122 3.724 1.347 4.914.61.995-.617.072-2.106-.043-2.412l-6.384-17.066c-.498-1.332-5.395-1.634-6.016.328zm9.612-9.419c1.056.06 1.98 1.43.773 4.226-4.444.895-5.458-2.539-2.386-2.94.297-.884.979-1.321 1.613-1.286zm10.141-7.171c-.025-1.587.796-1.823 1.347-1.947 1.06-.24 2.88-.355 3.52.387l6.626 7.69c.17.197.69.507.675-.143l-.159-6.871c-.015-.686-.003-1.712 1-1.713l3.233-.002c.71 0 1.24 1.177 1.27 1.887l.797 18.129c.048 1.072-2.555.858-3.297.084l-8.278-8.636c-.148-.154-.525-.098-.504.395l.35 8.046c.043.998-.746 1.416-1.218 1.412l-3.331-.026c-1.159-.01-1.767-1.885-1.779-2.624zm21.03 13.508c1.178 2.513 3.435 3.531 6.964 3.597 8 .147 9.046-8.452 5.76-8.874-2.92-.374-2.008 4.424-7.036 3.817-3.012-.363-3.068-9.355.824-9.542 4.206-.202 4.378 4.303 6.735 2.02 2.358-2.282-2.09-7.656-7.185-7.409-4.452.216-6.152 3.908-6.669 5.325-.515 1.41-1.06 7.508.607 11.066z" fill="#fe1bab" fill-rule="evenodd"/></svg>