<svg xmlns="http://www.w3.org/2000/svg" width="215.291" height="117.121" viewBox="0 0 56.962 30.988"><path d="M30.496 24.581C45.35 8.441 31.59-.298 24.728 8.546c-13.649-2.858-14.44 13.24 5.768 16.035z" fill="#fe2323" fill-rule="evenodd" stroke="#fff" stroke-width="6.403"/><path d="M44.07 22.791l-1.15-10.743c-.02-.192-.499-.838-.778-.82-1.102.073-1.813.231-2.543.611-1.508.786-2.826-5.36-1.787-6.6.985-1.175 7.693-1.918 12.223-1.77 1.654.055 3.106 1.589 3.37 3.006.224 1.202.089 3.392-1.074 3.428l-2.72.084c-1.17.036-.938 1.005-.83 1.622l1.808 10.393c.225 1.289-.446 2.434-3.93 2.801-2.217.235-2.503-1.217-2.588-2.012zM3.456 10.032l.554 13.974c.067 1.699 1.858 3.61 3.473 3.528l8.836-.446c.794-.04 1.684-1.283 1.654-2.724-.025-1.223-.584-3.173-1.747-3.139l-4.565.135c-1.17.035-1.127-.907-1.147-1.533l-.34-10.543c-.042-1.308-.846-2.535-4.33-2.18-2.164.22-2.427 1.936-2.388 2.928z" fill="#fe1bab" fill-rule="evenodd" stroke="#fff" stroke-width="6.9"/><g fill-rule="evenodd"><path d="M4.108 10.547L4.66 24.52c.068 1.699 1.859 3.61 3.474 3.529l8.836-.446c.793-.04 1.683-1.283 1.654-2.724-.025-1.223-.584-3.174-1.747-3.14l-4.565.135c-1.17.035-1.127-.907-1.148-1.533l-.339-10.543c-.042-1.308-.846-2.535-4.33-2.18-2.164.221-2.427 1.936-2.388 2.929z" fill="#6d055e"/><path d="M3.127 9.612l.553 13.973c.068 1.7 1.859 3.61 3.474 3.529l8.836-.446c.793-.04 1.684-1.283 1.654-2.724-.025-1.223-.584-3.173-1.747-3.14l-4.565.136c-1.17.034-1.127-.908-1.148-1.534L9.845 8.863C9.803 7.555 9 6.328 5.515 6.683c-2.165.222-2.427 1.937-2.388 2.93z" fill="#b64397"/></g><path d="M30.903 25.335C45.756 9.195 31.996.457 25.134 9.3c-13.648-2.858-14.44 13.24 5.769 16.035z" fill="#c30101" fill-rule="evenodd"/><path d="M30.496 24.581C45.35 8.441 31.59-.298 24.728 8.546c-13.649-2.858-14.44 13.24 5.768 16.035z" fill="#fe2323" fill-rule="evenodd"/><path d="M30.91 12.39s-.466 1.389-2.035 3.218c-4.158 4.849-4.56 3.24-4.495 2.407.095-1.21.862-2.214 2.506-3.79.875-.84 3.722-3.285 3.537-4.999-.314-2.902-4.98-1.037-5.27 3.01-.207 2.861 4.152 7.05 5.913 7.02.695-.74 1.027-1.804.812-2.735-1.264 1.363-3.956-2.176-4.616-3.46-.767-1.49-.108-4.152 1.391-4.437 1.046-.2-.191 2.1-1.067 2.94-1.644 1.576-4.832 4.032-4.863 6.896-.015 1.358 2.14 5.115 6.665-.236 1.048-1.24 2.218-3.091 2.334-3.762.14-.807-.353-1.588-.812-2.073z" fill="#fff"/><g fill-rule="evenodd"><path d="M44.722 23.306l-1.15-10.744c-.02-.192-.499-.838-.779-.82-1.101.074-1.813.232-2.543.612-1.508.785-2.825-5.361-1.787-6.6.985-1.176 7.693-1.918 12.223-1.77 1.655.054 3.107 1.588 3.37 3.005.224 1.203.09 3.393-1.073 3.428l-2.72.085c-1.17.036-.938 1.005-.83 1.622l1.808 10.392c.225 1.289-.447 2.434-3.93 2.802-2.217.234-2.503-1.217-2.589-2.012z" fill="#b62f8f"/><path d="M43.741 22.37l-1.15-10.743c-.02-.192-.499-.838-.779-.82-1.101.074-1.813.232-2.543.612-1.508.786-2.825-5.361-1.787-6.6.985-1.176 7.693-1.918 12.223-1.77 1.655.055 3.107 1.588 3.37 3.005.224 1.203.09 3.393-1.073 3.429l-2.72.084c-1.17.036-.938 1.005-.83 1.622L50.26 21.58c.225 1.29-.447 2.434-3.93 2.802-2.217.234-2.503-1.217-2.589-2.012z" fill="#fe1bab"/></g></svg>